<mxfile host="app.diagrams.net" modified="2022-07-20T09:36:43.068Z" agent="5.0 (X11)" etag="JgTLCucIXVwAuuB6VAzB" version="20.1.3" type="github">
  <diagram id="xeAv-j7N27nXM2-tX7S8" name="Page-1">
    <mxGraphModel dx="1185" dy="661" grid="1" gridSize="10" guides="1" tooltips="1" connect="1" arrows="1" fold="1" page="1" pageScale="1" pageWidth="850" pageHeight="1100" math="0" shadow="0">
      <root>
        <mxCell id="0" />
        <mxCell id="1" parent="0" />
        <mxCell id="K30sNtnkDTssSsv7Rbnj-9" value="" style="line;strokeWidth=2;direction=south;html=1;rotation=90;" vertex="1" parent="1">
          <mxGeometry x="403.75" y="21.25" width="10" height="777.5" as="geometry" />
        </mxCell>
        <mxCell id="K30sNtnkDTssSsv7Rbnj-10" value="" style="line;strokeWidth=2;direction=south;html=1;rotation=-30;" vertex="1" parent="1">
          <mxGeometry x="138.22" y="406.45" width="10" height="82.88" as="geometry" />
        </mxCell>
        <mxCell id="K30sNtnkDTssSsv7Rbnj-11" value="" style="line;strokeWidth=2;direction=south;html=1;rotation=90;" vertex="1" parent="1">
          <mxGeometry x="475" y="168.75" width="10" height="630" as="geometry" />
        </mxCell>
        <mxCell id="K30sNtnkDTssSsv7Rbnj-12" value="" style="line;strokeWidth=2;direction=south;html=1;rotation=-30;" vertex="1" parent="1">
          <mxGeometry x="239.83" y="479.37" width="10" height="50.68" as="geometry" />
        </mxCell>
        <mxCell id="K30sNtnkDTssSsv7Rbnj-13" value="" style="line;strokeWidth=2;direction=south;html=1;rotation=-90;" vertex="1" parent="1">
          <mxGeometry x="435" y="335" width="10" height="380" as="geometry" />
        </mxCell>
        <mxCell id="K30sNtnkDTssSsv7Rbnj-15" value="" style="ellipse;whiteSpace=wrap;html=1;fontColor=#000000;fillColor=#FF0000;" vertex="1" parent="1">
          <mxGeometry x="110" y="400" width="20" height="20" as="geometry" />
        </mxCell>
        <mxCell id="K30sNtnkDTssSsv7Rbnj-19" value="" style="endArrow=classic;html=1;rounded=0;fontColor=#000000;startArrow=none;" edge="1" parent="1" source="K30sNtnkDTssSsv7Rbnj-24">
          <mxGeometry width="50" height="50" relative="1" as="geometry">
            <mxPoint x="550" y="490" as="sourcePoint" />
            <mxPoint x="660" y="490" as="targetPoint" />
          </mxGeometry>
        </mxCell>
        <mxCell id="K30sNtnkDTssSsv7Rbnj-20" value="" style="ellipse;whiteSpace=wrap;html=1;fontColor=#000000;fillColor=#FF0000;" vertex="1" parent="1">
          <mxGeometry x="330" y="510" width="25" height="28.23" as="geometry" />
        </mxCell>
        <mxCell id="K30sNtnkDTssSsv7Rbnj-23" value="" style="ellipse;whiteSpace=wrap;html=1;fontColor=#000000;fillColor=#FF0000;" vertex="1" parent="1">
          <mxGeometry x="485" y="510" width="30" height="30" as="geometry" />
        </mxCell>
        <mxCell id="K30sNtnkDTssSsv7Rbnj-24" value="" style="ellipse;whiteSpace=wrap;html=1;fontColor=#000000;fillColor=#FFFF00;" vertex="1" parent="1">
          <mxGeometry x="620" y="513.68" width="20" height="20.88" as="geometry" />
        </mxCell>
        <mxCell id="K30sNtnkDTssSsv7Rbnj-27" value="" style="endArrow=none;html=1;rounded=0;fontColor=#000000;exitX=1;exitY=0.5;exitDx=0;exitDy=0;exitPerimeter=0;" edge="1" parent="1" source="K30sNtnkDTssSsv7Rbnj-13" target="K30sNtnkDTssSsv7Rbnj-24">
          <mxGeometry width="50" height="50" relative="1" as="geometry">
            <mxPoint x="630" y="525" as="sourcePoint" />
            <mxPoint x="670" y="480" as="targetPoint" />
          </mxGeometry>
        </mxCell>
        <mxCell id="K30sNtnkDTssSsv7Rbnj-28" value="" style="ellipse;whiteSpace=wrap;html=1;fontColor=#000000;fillColor=#FFFF00;" vertex="1" parent="1">
          <mxGeometry x="660" y="469.33" width="20" height="20" as="geometry" />
        </mxCell>
        <mxCell id="K30sNtnkDTssSsv7Rbnj-29" style="edgeStyle=orthogonalEdgeStyle;rounded=0;orthogonalLoop=1;jettySize=auto;html=1;exitX=0;exitY=1;exitDx=0;exitDy=0;entryX=1;entryY=1;entryDx=0;entryDy=0;fontColor=#000000;" edge="1" parent="1" source="K30sNtnkDTssSsv7Rbnj-28" target="K30sNtnkDTssSsv7Rbnj-28">
          <mxGeometry relative="1" as="geometry" />
        </mxCell>
        <mxCell id="K30sNtnkDTssSsv7Rbnj-30" value="main" style="text;html=1;resizable=0;autosize=1;align=center;verticalAlign=middle;points=[];fillColor=none;strokeColor=none;rounded=0;fontColor=#000000;" vertex="1" parent="1">
          <mxGeometry x="15" y="375" width="50" height="30" as="geometry" />
        </mxCell>
        <mxCell id="K30sNtnkDTssSsv7Rbnj-31" value="dev" style="text;html=1;resizable=0;autosize=1;align=center;verticalAlign=middle;points=[];fillColor=none;strokeColor=none;rounded=0;fontColor=#000000;" vertex="1" parent="1">
          <mxGeometry x="98.22" y="449.37" width="40" height="30" as="geometry" />
        </mxCell>
        <mxCell id="K30sNtnkDTssSsv7Rbnj-32" value="add" style="text;html=1;resizable=0;autosize=1;align=center;verticalAlign=middle;points=[];fillColor=none;strokeColor=none;rounded=0;fontColor=#000000;" vertex="1" parent="1">
          <mxGeometry x="209.82999999999998" y="500.05" width="40" height="30" as="geometry" />
        </mxCell>
        <mxCell id="K30sNtnkDTssSsv7Rbnj-33" value="0.1add" style="text;html=1;resizable=0;autosize=1;align=center;verticalAlign=middle;points=[];fillColor=none;strokeColor=none;rounded=0;fontColor=#000000;" vertex="1" parent="1">
          <mxGeometry x="320" y="538.23" width="60" height="30" as="geometry" />
        </mxCell>
        <mxCell id="K30sNtnkDTssSsv7Rbnj-35" value="0.2add" style="text;html=1;resizable=0;autosize=1;align=center;verticalAlign=middle;points=[];fillColor=none;strokeColor=none;rounded=0;fontColor=#000000;" vertex="1" parent="1">
          <mxGeometry x="470" y="538.23" width="60" height="30" as="geometry" />
        </mxCell>
        <mxCell id="K30sNtnkDTssSsv7Rbnj-36" value="0.3add" style="text;html=1;resizable=0;autosize=1;align=center;verticalAlign=middle;points=[];fillColor=none;strokeColor=none;rounded=0;fontColor=#000000;" vertex="1" parent="1">
          <mxGeometry x="610" y="530.05" width="60" height="30" as="geometry" />
        </mxCell>
      </root>
    </mxGraphModel>
  </diagram>
</mxfile>
